<svg xmlns="http://www.w3.org/2000/svg" viewBox="0 0 280.33 598.54"><defs><style>.cls-1{isolation:isolate;}.cls-2{fill:#ffc700;}.cls-3{mix-blend-mode:overlay;}</style></defs><g class="cls-1"><g id="Layer_2" data-name="Layer 2"><g id="Layer_1-2" data-name="Layer 1"><path class="cls-2" d="M47.27,365.22A80.67,80.67,0,0,0,111.15,402a78.93,78.93,0,0,0,54.31-18A89.41,89.41,0,0,0,196,334.34c13.47-59.89,42.58-113.44,84.37-155.43v-2.85C237.51,218.52,207.72,273,194,333.91a87.41,87.41,0,0,1-29.81,48.5A77,77,0,0,1,111.25,400,79.54,79.54,0,0,1,41,292.83c26.46-71.56,64.73-136,113.73-191.57l.15-.17,1.35-1.52c1.88-2.1,3.76-4.19,5.69-6.26l1.93-2.09c.75-.83,1.52-1.66,2.3-2.48l.29-.3a2.05,2.05,0,0,0,.2-.23q18.64-19.78,38.93-37.66Q185.31,68.3,166.75,88a569,569,0,0,1,87.82-76.42A53.8,53.8,0,0,1,280.33,2V.33a55.84,55.84,0,0,0-26.7,9.84l-3.69,2.62s0,0,0,0q-5.56,4-11,8.07-7.32,5.46-14.46,11.21l-2.85,2.3-2.84,2.32L215.92,39c-1.79,1.48-3.56,3-5.33,4.5-1,.87-2.05,1.75-3.06,2.62-1.24,1.06-2.46,2.14-3.69,3.24-.92.8-1.84,1.62-2.76,2.44q-18.83,16.81-36.24,35.35h0l-.39.4q-5.62,6-11.1,12.18c-.41.46-.82.93-1.21,1.39-48.66,55.46-86.69,119.72-113,191A80.49,80.49,0,0,0,47.27,365.22Z"/><path class="cls-2" d="M154.29,101.16l.41.1.15-.17,1.35-1.52h0c3.55-4,6.83-7.57,10-10.82l.29-.3a2.05,2.05,0,0,0,.2-.23,1.23,1.23,0,0,0,.14-.25,569,569,0,0,1,87.82-76.42A53.8,53.8,0,0,1,280.33,2V0a55.72,55.72,0,0,0-26.91,9.91A571.54,571.54,0,0,0,165.1,86.79l-.26.32v.08l-.39.4c-3.43,3.55-7,7.46-10.91,11.91l-1.46,1.66Z"/><path class="cls-2" d="M80.86,598.54A80.85,80.85,0,1,0,0,517.71,80.93,80.93,0,0,0,80.86,598.54Zm0-159.69A78.85,78.85,0,1,1,2,517.71,78.94,78.94,0,0,1,80.86,438.85Z"/><g class="cls-3"><path class="cls-2" d="M280.33,2.34a54,54,0,0,0-25.56,9.47Q243.66,19.6,232.89,28q10.79-8.35,21.93-16.16a54.16,54.16,0,0,1,25.51-9.44Z"/><path class="cls-2" d="M154.18,101.13l.11,0,.41.1.15-.17,1.35-1.52.05,0c1.84-2.08,3.73-4.18,5.64-6.28l1.93-2.09,2.59-2.78a2.05,2.05,0,0,0,.2-.23,1.23,1.23,0,0,0,.14-.25,569,569,0,0,1,87.82-76.42A53.8,53.8,0,0,1,280.33,2V.35a56.31,56.31,0,0,0-26.66,9.81l-3.73,2.63s0,0,0,0q-5.55,4-11,8.07-7.3,5.49-14.46,11.21l-2.85,2.3-2.84,2.32L215.92,39c-1.79,1.48-3.56,3-5.33,4.5-1,.87-2.05,1.75-3.06,2.62-1.24,1.06-2.46,2.14-3.69,3.24-.92.8-1.84,1.62-2.76,2.44q-18.72,16.65-36,35l-.26.32v.08c-3.85,4.11-7.61,8.25-11.18,12.31l-1.08,1.24Z"/></g></g></g></g></svg>