<svg xmlns="http://www.w3.org/2000/svg" viewBox="0 0 266.17 80.15"><defs><style>.cls-1{isolation:isolate;}.cls-2{fill:#fff;}.cls-3,.cls-5{fill:#ff4200;}.cls-4{fill:#ffc700;}.cls-5{mix-blend-mode:overlay;}</style></defs><g class="cls-1"><g id="Layer_2" data-name="Layer 2"><g id="Layer_1-2" data-name="Layer 1"><path class="cls-2" d="M89.6,65.49A14.43,14.43,0,0,1,77,78.42a287.51,287.51,0,0,1-31.11,1.72A289.57,289.57,0,0,1,14,78.42,14.41,14.41,0,0,1,1.4,65.5a233.08,233.08,0,0,1,0-50.87,14.46,14.46,0,0,1,12.67-13A305.25,305.25,0,0,1,45.41,0,308.59,308.59,0,0,1,77,1.62a14.44,14.44,0,0,1,12.66,13A233.94,233.94,0,0,1,91,38.15,232.09,232.09,0,0,1,89.6,65.49"/><path class="cls-2" d="M115.94,56.63a5.61,5.61,0,0,1-3.08-1.12,20,20,0,0,1-3.4-3,21,21,0,0,1-1.76-2.12c-.64-.86-1.3-1.8-2-2.82s-1.31-2.05-1.94-3.1-1.19-2.07-1.7-3-.94-1.82-1.29-2.56a13.89,13.89,0,0,1-.73-1.83,5.34,5.34,0,0,1-.26-1.54,2.7,2.7,0,0,1,.51-1.65,3.4,3.4,0,0,1,1.35-1.09,4.15,4.15,0,0,1,1.83-.4,4.26,4.26,0,0,1,2.39.66A6.43,6.43,0,0,1,107.75,35c.21.33.49.83.84,1.51s.73,1.45,1.16,2.34l1.35,2.75c.47,1,.93,1.89,1.37,2.8s.86,1.73,1.24,2.47a11.8,11.8,0,0,0,1.09,1.77c.34.45.65.68.91.68s.58-.22.93-.67a9.77,9.77,0,0,0,1.08-1.78c.89-1.75,1.78-3.65,2.68-5.72s1.84-4.16,2.83-6.27a6.46,6.46,0,0,1,1.75-2,4,4,0,0,1,2.28-.62,3.79,3.79,0,0,1,2.45.76,2.72,2.72,0,0,1,.94,2.26,6.74,6.74,0,0,1-.23,1.65,13.74,13.74,0,0,1-.66,1.84c-.26.72-.62,1.57-1.06,2.53s-.94,2-1.47,3.06-1.1,2.13-1.7,3.16-1.18,2-1.75,2.91a19.88,19.88,0,0,1-1.66,2.26A16.92,16.92,0,0,1,119,55.54,5.4,5.4,0,0,1,115.94,56.63Z"/><path class="cls-2" d="M142.08,55a6,6,0,0,1-3.3-.87,7.42,7.42,0,0,1-2.34-2.47,9.54,9.54,0,0,1-.83-2.12q-.37-1.37-.72-3.06c-.22-1.13-.4-2.29-.55-3.48s-.27-2.35-.35-3.44-.12-2-.12-2.86a8.5,8.5,0,0,1,.42-2.78A4.25,4.25,0,0,1,135.56,32a3.2,3.2,0,0,1,2.14-.72,2.62,2.62,0,0,1,2.09.78,5,5,0,0,1,1,2.29c.09.51.17,1.12.26,1.84s.19,1.47.29,2.26.2,1.58.32,2.35.23,1.49.35,2.14.23,1.19.34,1.62A4.19,4.19,0,0,0,143,46a1.09,1.09,0,0,0,.9.55,1,1,0,0,0,.87-.6,6.42,6.42,0,0,0,.59-1.51q.27-1.08.54-2.46c.18-.91.38-1.86.6-2.83s.43-1.92.66-2.86a25.2,25.2,0,0,1,.77-2.51,5,5,0,0,1,1.57-2,4.69,4.69,0,0,1,2.88-.78,4.33,4.33,0,0,1,2.6.68,4.2,4.2,0,0,1,1.36,1.69c.18.48.38,1.08.58,1.8s.42,1.48.63,2.31.42,1.64.61,2.46l.52,2.27c.15.71.28,1.28.38,1.72a8.41,8.41,0,0,0,.58,1.76c.23.45.49.67.81.67a1,1,0,0,0,.92-.56,7.77,7.77,0,0,0,.66-1.52c.16-.49.33-1.16.51-2s.34-1.75.52-2.75.34-2,.5-3,.32-1.84.47-2.6a4.56,4.56,0,0,1,1.15-2,2.94,2.94,0,0,1,2-.66,4.38,4.38,0,0,1,1.61.29,3.73,3.73,0,0,1,1.37.95,4.52,4.52,0,0,1,1,1.77,9.29,9.29,0,0,1,.34,2.72c0,.7,0,1.48-.12,2.35s-.2,1.8-.36,2.76-.34,1.92-.56,2.87-.44,1.86-.69,2.73-.51,1.66-.78,2.35a10.14,10.14,0,0,1-.83,1.71,8.1,8.1,0,0,1-2.63,2.34,7.16,7.16,0,0,1-3.48.82,5.33,5.33,0,0,1-3.36-1.06,6.48,6.48,0,0,1-2-2.42c-.23-.74-.47-1.58-.71-2.51s-.48-1.89-.71-2.87l-.69-2.82c-.21-.9-.41-1.68-.59-2.34a6.65,6.65,0,0,0-.52-1.63,1,1,0,0,0-1-.67,1.28,1.28,0,0,0-1.16.72,6.07,6.07,0,0,0-.67,1.66c-.12.49-.26,1.11-.42,1.85s-.34,1.53-.52,2.37-.37,1.68-.56,2.52-.37,1.59-.56,2.3-.35,1.27-.51,1.71a5.84,5.84,0,0,1-2.27,2.32A6.89,6.89,0,0,1,142.08,55Z"/><path class="cls-2" d="M185,57.5a19.16,19.16,0,0,1-3.92-.39,10.43,10.43,0,0,1-3.34-1.26,6.39,6.39,0,0,1-2.31-2.31,6.81,6.81,0,0,1-.84-3.49,6,6,0,0,1,1.11-3.72,7.33,7.33,0,0,1,3-2.3A17.06,17.06,0,0,1,183,42.86a33.43,33.43,0,0,1,5-.35c.49,0,1,0,1.51.05l1.42.1c.44,0,.8.05,1.1.05a1.21,1.21,0,0,0,.82-.21,1,1,0,0,0,.22-.71,4.66,4.66,0,0,0-.2-1.41,3.43,3.43,0,0,0-.57-1.09,3.84,3.84,0,0,0-.89-.81,5.75,5.75,0,0,0-2.09-.83,13.39,13.39,0,0,0-2.68-.26,12.88,12.88,0,0,0-3.16.36c-.94.24-1.82.48-2.62.74a7.35,7.35,0,0,1-2.28.38,4.82,4.82,0,0,1-2.5-.53,1.81,1.81,0,0,1-.89-1.69,2.86,2.86,0,0,1,.89-2.06A7.4,7.4,0,0,1,178.51,33a16.15,16.15,0,0,1,3.54-1,24.83,24.83,0,0,1,4.23-.34,23.11,23.11,0,0,1,7.53,1.06,8.68,8.68,0,0,1,4.61,3.5A12.17,12.17,0,0,1,200,42.86a14.56,14.56,0,0,1-.12,2c-.09.57-.18,1.06-.28,1.48s-.19.79-.27,1.1a3.49,3.49,0,0,0-.12.87,2,2,0,0,0,.42,1.21,11.14,11.14,0,0,0,1,1.16,8.3,8.3,0,0,1,1,1.26,2.75,2.75,0,0,1,.42,1.49,2,2,0,0,1-.81,1.79,3.07,3.07,0,0,1-1.79.56,2,2,0,0,1-1.4-.51c-.35-.34-.67-.67-1-1a1.3,1.3,0,0,0-1-.5,1.83,1.83,0,0,0-.78.21,8.48,8.48,0,0,0-1.05.63,21.65,21.65,0,0,1-1.93,1.23,13.22,13.22,0,0,1-3,1.17A16.28,16.28,0,0,1,185,57.5Zm.72-4.55a8.67,8.67,0,0,0,2.57-.4,7.7,7.7,0,0,0,2.26-1.12,5.92,5.92,0,0,0,1.6-1.72,4.17,4.17,0,0,0,.59-2.16,1.29,1.29,0,0,0-.5-1.12,3.39,3.39,0,0,0-1.6-.46c-.73-.06-1.67-.1-2.84-.1a14.69,14.69,0,0,0-3.32.36,5.66,5.66,0,0,0-2.51,1.2,2.93,2.93,0,0,0-1,2.3,2.77,2.77,0,0,0,.58,1.81,3.47,3.47,0,0,0,1.63,1.06A8,8,0,0,0,185.71,53Z"/><path class="cls-2" d="M208,55.42a3.65,3.65,0,0,1-2.26-.64,3.74,3.74,0,0,1-1.25-2.11c-.07-.41-.11-.87-.15-1.38s-.05-1.09-.05-1.74,0-1.36.08-2.12a20.5,20.5,0,0,1,2-8.46,12.66,12.66,0,0,1,5-5.32A15,15,0,0,1,219,31.82a15.55,15.55,0,0,1,7.58,1.76,11.8,11.8,0,0,1,5,5.31,20.08,20.08,0,0,1,1.76,8.94c0,.62,0,1.2-.05,1.74s-.09,1-.15,1.48a12,12,0,0,1-.25,1.25,4.72,4.72,0,0,1-1.37,2.37,3.47,3.47,0,0,1-2.29.75,4.5,4.5,0,0,1-2.25-.46,2.55,2.55,0,0,1-1.13-1.33,9.31,9.31,0,0,1-.48-2.14c-.05-1.12-.1-2.13-.16-3s-.13-1.67-.21-2.36-.17-1.34-.27-1.94-.22-1.19-.37-1.77a6.77,6.77,0,0,0-1.7-3.31,4.66,4.66,0,0,0-3.4-1.12,4.93,4.93,0,0,0-3.45,1.2,8.1,8.1,0,0,0-2.09,3.33,18.87,18.87,0,0,0-.55,2c-.16.68-.3,1.4-.41,2.16s-.21,1.56-.29,2.4-.15,1.73-.23,2.67a4.69,4.69,0,0,1-.74,2.29A3.18,3.18,0,0,1,210,55.11,5.88,5.88,0,0,1,208,55.42Z"/><path class="cls-2" d="M251.13,56.56a17.23,17.23,0,0,1-6.37-1.07,11,11,0,0,1-4.43-3.09,13,13,0,0,1-2.58-4.94,24.16,24.16,0,0,1-.84-6.66c0-.62,0-1.24.07-1.85a16.41,16.41,0,0,1,.24-1.77,11.35,11.35,0,0,1,.38-1.55A5.3,5.3,0,0,1,239.21,33a3.83,3.83,0,0,1,2.49-.84,3.59,3.59,0,0,1,2.11.51,2.47,2.47,0,0,1,.92,1.3,5.65,5.65,0,0,1,.26,1.55c0,.34,0,.73,0,1.15s0,.85,0,1.3,0,.87,0,1.28,0,.79.06,1.14a22.22,22.22,0,0,0,.76,5,6.67,6.67,0,0,0,1.93,3.28,5.11,5.11,0,0,0,3.55,1.18A6.36,6.36,0,0,0,255,49a6.07,6.07,0,0,0,2.19-2.72,17.14,17.14,0,0,0,1.19-4.39,14.07,14.07,0,0,0,.23-1.47c.06-.5.11-1,.15-1.52s.09-1,.15-1.54.13-1,.21-1.53a5.32,5.32,0,0,1,1.2-2.56,3.25,3.25,0,0,1,2.51-.93,2.66,2.66,0,0,1,2.15.87,5.12,5.12,0,0,1,1,2.4c.05.56.09,1.13.13,1.71s.05,1.15.05,1.74,0,1.17,0,1.76,0,1.16-.07,1.74a17.49,17.49,0,0,1-2,7.8A11.27,11.27,0,0,1,259,55,18.08,18.08,0,0,1,251.13,56.56Z"/><path class="cls-3" d="M31.61,60.66a58.64,58.64,0,0,0,10.2,9.13,5.66,5.66,0,0,0,6.47,0A58.5,58.5,0,0,0,58.5,60.66,62.22,62.22,0,0,0,70.16,41,8.23,8.23,0,0,0,62.89,30a8.51,8.51,0,0,0-8.56,6.83,32.76,32.76,0,0,1-9.28,16.56,29.38,29.38,0,0,1-6.66,4.77A28.79,28.79,0,0,1,31.61,60.66Z"/><path class="cls-4" d="M58.49,60.69c-.38.42-.77.85-1.17,1.27v0a58.14,58.14,0,0,1-9,7.84,5.66,5.66,0,0,1-6.48,0,59.22,59.22,0,0,1-10.23-9.13A62.55,62.55,0,0,1,19.94,41.06,8.23,8.23,0,0,1,27.21,30a8.53,8.53,0,0,1,8.57,6.83A32.74,32.74,0,0,0,45,53.34l0,0s0,0,0,0a28.55,28.55,0,0,0,6.62,4.75,28.86,28.86,0,0,0,6.76,2.56Z"/><path class="cls-3" d="M32.26,18a8.16,8.16,0,1,1-8.15-8.16A8.16,8.16,0,0,1,32.26,18"/><path class="cls-4" d="M57.83,18A8.16,8.16,0,1,0,66,9.87,8.16,8.16,0,0,0,57.83,18"/><path class="cls-5" d="M58.47,60.69c-.37.42-.76.85-1.15,1.27v0a59.22,59.22,0,0,1-9,7.82,5.69,5.69,0,0,1-6.46,0,59.52,59.52,0,0,1-10.2-9.14,29.47,29.47,0,0,0,6.79-2.55A29,29,0,0,0,45,53.34l0,0s0,0,0,0a28.55,28.55,0,0,0,6.62,4.75A28.86,28.86,0,0,0,58.47,60.69Z"/></g></g></g></svg>