<?xml version="1.0" encoding="iso-8859-1"?>
<!-- Generator: Adobe Illustrator 19.0.0, SVG Export Plug-In . SVG Version: 6.00 Build 0)  -->
<svg version="1.1" id="Capa_1" xmlns="http://www.w3.org/2000/svg" xmlns:xlink="http://www.w3.org/1999/xlink" x="0px" y="0px"
	 viewBox="0 0 512 512" style="enable-background:new 0 0 512 512;" xml:space="preserve">
<g>
	<g>
		<path d="M508.304,321.846l-52.045-179.107l-1.092-22.248c-2.874-58.526-83.784-79.34-115.501-31.082
			c-9.817-26.781-35.814-45.184-64.464-45.184c-26.342,0-50.695,15.468-62.044,39.408c-1.363,2.875-5.723,3.174-8.041,0.583
			c-35.626-39.881-101.641-21.611-111.554,31.028c-0.299,1.583-2.303,3.322-3.419,2.286C55.933,85.861,0,110.123,0,156.929v20.656
			c0,4.142,3.357,7.5,7.5,7.5s7.5-3.358,7.5-7.5v-20.656c0-33.665,40.245-51.259,64.954-28.391
			c10.089,9.337,25.893,2.511,28.349-10.517c7.586-40.282,58.147-54.574,85.628-23.812c9.378,10.497,26.769,8.537,32.782-4.152
			c8.878-18.73,27.912-30.832,48.488-30.832c23.339,0,44.428,15.645,51.286,38.044c3.386,11.073,18.428,12.926,24.184,2.869
			c22.628-39.527,87.309-23.792,89.513,21.088l8.044,163.823c0.197,4.012,3.512,7.132,7.485,7.132c4.308,0,7.707-3.599,7.497-7.868
			l-3.775-76.884L493.9,326.032c6.416,22.081,2.766,45.708-10.016,64.823l-15.634,23.381
			c-14.689,21.969-39.237,35.166-65.664,35.305l-100.692,0.528c-4.143,0.021-7.482,3.397-7.461,7.539
			c0.021,4.129,3.375,7.461,7.499,7.461c1.801,0-14.765,0.078,100.732-0.528c31.414-0.165,60.594-15.853,78.055-41.967
			l15.634-23.381C511.604,376.384,515.959,348.193,508.304,321.846z"/>
	</g>
</g>
<g>
	<g>
		<g>
			<path d="M466.447,350.197l-1.517-30.884c-0.203-4.137-3.697-7.306-7.859-7.123c-4.137,0.203-7.326,3.722-7.123,7.859
				l1.508,30.693c-0.106,27.249-24.206,49.389-53.815,49.389c-29.672,0-53.813-22.235-53.814-49.564
				c0-0.138-1.982-197.611-1.983-197.732c-0.041-4.117-3.391-7.425-7.498-7.425c-4.181,0-7.543,3.41-7.502,7.575l1.983,199.191
				c-0.012,30.305-25.58,55.158-56.443,53.533c-28.491-1.475-50.81-25.397-50.81-54.46c-0.007-1.722-0.015-1.566-3.118-207.38
				c-0.063-4.141-3.469-7.471-7.612-7.386c-4.142,0.063-7.448,3.471-7.386,7.612l3.116,206.488
				c-0.01,28.282-23.893,50.963-52.171,49.482c-26.335-1.363-46.963-23.479-46.963-50.346
				c-1.457-178.229-1.409-172.336-1.407-172.14c0-0.007,0-0.025,0-0.06c-0.037-4.24-3.579-7.524-7.565-7.434
				c-4.143,0.036-7.471,3.423-7.435,7.565L92.44,337.89c-0.009,21.343-17.375,38.703-38.718,38.703
				c-21.351,0-38.72-17.369-38.72-38.719v-125.29c0-4.142-3.357-7.5-7.5-7.5s-7.5,3.358-7.5,7.5v125.29
				C0,388.741,64.454,411.036,95.943,371.051c13.244,39.01,57.85,55.189,92.234,36.044c0.431,16.318,7.339,31.936,19.309,43.332
				c23.126,22.022,48.877,17.172,60.083,16.273c4.127-0.353,7.188-3.983,6.835-8.11c-0.353-4.127-3.991-7.191-8.11-6.835
				c-5.116-0.355-28.483,6.836-48.463-12.191c-19.674-18.733-13.849-41.606-13.978-44.681c3.769-3.988,7.004-8.415,9.629-13.163
				c25.33,52.694,99.137,51.56,123.721-0.305c11.683,20.072,34.396,33.719,60.44,33.719
				C437.945,415.133,467.986,382.525,466.447,350.197z"/>
			<path d="M106.034,177.579C106.034,177.583,106.034,177.584,106.034,177.579L106.034,177.579z"/>
		</g>
	</g>
</g>
<g>
</g>
<g>
</g>
<g>
</g>
<g>
</g>
<g>
</g>
<g>
</g>
<g>
</g>
<g>
</g>
<g>
</g>
<g>
</g>
<g>
</g>
<g>
</g>
<g>
</g>
<g>
</g>
<g>
</g>
</svg>
